<?xml version="1.0" encoding="UTF-8" standalone="no"?>
<!DOCTYPE svg PUBLIC "-//W3C//DTD SVG 1.1//EN"
 "http://www.w3.org/Graphics/SVG/1.1/DTD/svg11.dtd">
<!-- Generated by graphviz version 2.40.1 (0)
 -->
<!-- Title: %3 Pages: 1 -->
<svg width="367pt" height="305pt"
 viewBox="0.00 0.00 367.32 305.00" xmlns="http://www.w3.org/2000/svg" xmlns:xlink="http://www.w3.org/1999/xlink">
<g id="graph0" class="graph" transform="scale(1 1) rotate(0) translate(4 301)">
<title>%3</title>
<polygon fill="#ffffff" stroke="transparent" points="-4,4 -4,-301 363.3176,-301 363.3176,4 -4,4"/>
<!-- janus_server -->
<g id="node1" class="node">
<title>janus_server</title>
<polygon fill="#008080" stroke="#008080" points="257.8176,-297 138.8176,-297 138.8176,-261 257.8176,-261 257.8176,-297"/>
<text text-anchor="middle" x="198.3176" y="-275.3" font-family="Times,serif" font-size="14.00" fill="#000000">WebRTC Gateway</text>
</g>
<!-- stream_server -->
<g id="node2" class="node">
<title>stream_server</title>
<polygon fill="#008080" stroke="#008080" points="124.3176,-210 12.3176,-210 12.3176,-174 124.3176,-174 124.3176,-210"/>
<text text-anchor="middle" x="68.3176" y="-188.3" font-family="Times,serif" font-size="14.00" fill="#000000">Streaming Server</text>
</g>
<!-- janus_server&#45;&gt;stream_server -->
<g id="edge5" class="edge">
<title>janus_server&#45;&gt;stream_server</title>
<path fill="none" stroke="#0000ff" d="M138.5357,-273.3831C98.1772,-268.2115 50.0316,-258.8709 37.3176,-243 31.1957,-235.3581 33.8177,-226.4085 39.5623,-218.1581"/>
<polygon fill="#0000ff" stroke="#0000ff" points="42.4575,-220.1494 46.1396,-210.215 37.066,-215.6849 42.4575,-220.1494"/>
<text text-anchor="middle" x="68.3176" y="-231.8" font-family="Times,serif" font-size="14.00" fill="#000000">RTP media</text>
</g>
<!-- room_server -->
<g id="node3" class="node">
<title>room_server</title>
<polygon fill="#008080" stroke="#008080" points="242.8176,-36 153.8176,-36 153.8176,0 242.8176,0 242.8176,-36"/>
<text text-anchor="middle" x="198.3176" y="-14.3" font-family="Times,serif" font-size="14.00" fill="#000000">Room Server</text>
</g>
<!-- janus_server&#45;&gt;room_server -->
<g id="edge2" class="edge">
<title>janus_server&#45;&gt;room_server</title>
<path fill="none" stroke="#ff0000" d="M198.3176,-260.647C198.3176,-215.8139 198.3176,-100.4607 198.3176,-46.5557"/>
<polygon fill="#ff0000" stroke="#ff0000" points="201.8177,-46.3327 198.3176,-36.3327 194.8177,-46.3328 201.8177,-46.3327"/>
<text text-anchor="middle" x="214.8176" y="-144.8" font-family="Times,serif" font-size="14.00" fill="#000000">signal</text>
</g>
<!-- webrtc_peer -->
<g id="node4" class="node">
<title>webrtc_peer</title>
<polygon fill="#ffa500" stroke="#ffa500" points="321.8176,-210 226.8176,-210 226.8176,-174 321.8176,-174 321.8176,-210"/>
<text text-anchor="middle" x="274.3176" y="-188.3" font-family="Times,serif" font-size="14.00" fill="#000000">WebRTC Peer</text>
</g>
<!-- janus_server&#45;&gt;webrtc_peer -->
<g id="edge9" class="edge">
<title>janus_server&#45;&gt;webrtc_peer</title>
<path fill="none" stroke="#a020f0" d="M206.8207,-260.9189C212.155,-250.6419 219.655,-237.8919 228.3176,-228 231.7374,-224.0948 235.6288,-220.312 239.6663,-216.7588"/>
<polygon fill="#a020f0" stroke="#a020f0" points="242.0651,-219.3164 247.5254,-210.237 237.5949,-213.9296 242.0651,-219.3164"/>
<text text-anchor="middle" x="259.3176" y="-231.8" font-family="Times,serif" font-size="14.00" fill="#000000">RTP media</text>
</g>
<!-- stream_server&#45;&gt;janus_server -->
<g id="edge8" class="edge">
<title>stream_server&#45;&gt;janus_server</title>
<path fill="none" stroke="#a020f0" d="M84.627,-210.0273C94.7691,-220.5362 108.4781,-233.5399 122.3176,-243 129.3347,-247.7966 137.0908,-252.2734 144.8869,-256.3278"/>
<polygon fill="#a020f0" stroke="#a020f0" points="143.5051,-259.5499 154.0152,-260.8871 146.633,-253.2876 143.5051,-259.5499"/>
<text text-anchor="middle" x="153.3176" y="-231.8" font-family="Times,serif" font-size="14.00" fill="#000000">RTP media</text>
</g>
<!-- wechat_peer -->
<g id="node5" class="node">
<title>wechat_peer</title>
<polygon fill="#ffa500" stroke="#ffa500" points="144.3176,-123 56.3176,-123 56.3176,-87 144.3176,-87 144.3176,-123"/>
<text text-anchor="middle" x="100.3176" y="-101.3" font-family="Times,serif" font-size="14.00" fill="#000000">WeChat Peer</text>
</g>
<!-- stream_server&#45;&gt;wechat_peer -->
<g id="edge6" class="edge">
<title>stream_server&#45;&gt;wechat_peer</title>
<path fill="none" stroke="#0000ff" d="M20.2165,-173.7958C5.0426,-165.1908 -5.6915,-153.9531 3.3176,-141 8.8891,-132.9893 27.2022,-125.2941 46.4385,-119.0893"/>
<polygon fill="#0000ff" stroke="#0000ff" points="47.6848,-122.3677 56.2105,-116.0777 45.6232,-115.6782 47.6848,-122.3677"/>
<text text-anchor="middle" x="40.8176" y="-144.8" font-family="Times,serif" font-size="14.00" fill="#000000">RTMP media</text>
</g>
<!-- webrtc_peer&#45;&gt;janus_server -->
<g id="edge4" class="edge">
<title>webrtc_peer&#45;&gt;janus_server</title>
<path fill="none" stroke="#0000ff" d="M289.8324,-210.4778C296.4049,-220.6419 301.1433,-233.1505 294.3176,-243 290.3811,-248.6804 279.9998,-254.227 267.4458,-259.1984"/>
<polygon fill="#0000ff" stroke="#0000ff" points="266.1393,-255.95 257.9816,-262.7104 268.5746,-262.5127 266.1393,-255.95"/>
<text text-anchor="middle" x="328.3176" y="-231.8" font-family="Times,serif" font-size="14.00" fill="#000000">RTP media</text>
</g>
<!-- webrtc_peer&#45;&gt;room_server -->
<g id="edge1" class="edge">
<title>webrtc_peer&#45;&gt;room_server</title>
<path fill="none" stroke="#ff0000" d="M266.3279,-173.7078C252.951,-143.0818 225.952,-81.2682 210.2948,-45.4216"/>
<polygon fill="#ff0000" stroke="#ff0000" points="213.4103,-43.8101 206.2002,-36.0471 206.9955,-46.612 213.4103,-43.8101"/>
<text text-anchor="middle" x="259.8176" y="-101.3" font-family="Times,serif" font-size="14.00" fill="#000000">signal</text>
</g>
<!-- wechat_peer&#45;&gt;stream_server -->
<g id="edge7" class="edge">
<title>wechat_peer&#45;&gt;stream_server</title>
<path fill="none" stroke="#a020f0" d="M93.6956,-123.0034C89.3211,-134.8967 83.501,-150.72 78.538,-164.2132"/>
<polygon fill="#a020f0" stroke="#a020f0" points="75.1153,-163.38 74.948,-173.9735 81.6849,-165.7965 75.1153,-163.38"/>
<text text-anchor="middle" x="123.8176" y="-144.8" font-family="Times,serif" font-size="14.00" fill="#000000">RTMP media</text>
</g>
<!-- wechat_peer&#45;&gt;room_server -->
<g id="edge3" class="edge">
<title>wechat_peer&#45;&gt;room_server</title>
<path fill="none" stroke="#ff0000" d="M117.235,-86.9462C126.911,-76.9147 139.4511,-64.3976 151.3176,-54 155.7747,-50.0946 160.6082,-46.1223 165.4225,-42.3113"/>
<polygon fill="#ff0000" stroke="#ff0000" points="167.6834,-44.987 173.4365,-36.0902 163.3909,-39.4575 167.6834,-44.987"/>
<text text-anchor="middle" x="167.8176" y="-57.8" font-family="Times,serif" font-size="14.00" fill="#000000">signal</text>
</g>
</g>
</svg>
