<?xml version="1.0" encoding="UTF-8" standalone="no"?>
<!DOCTYPE svg PUBLIC "-//W3C//DTD SVG 1.1//EN"
 "http://www.w3.org/Graphics/SVG/1.1/DTD/svg11.dtd">
<!-- Generated by graphviz version 2.40.1 (0)
 -->
<!-- Title: node_shape Pages: 1 -->
<svg width="193pt" height="206pt"
 viewBox="0.00 0.00 192.75 205.62" xmlns="http://www.w3.org/2000/svg" xmlns:xlink="http://www.w3.org/1999/xlink">
<g id="graph0" class="graph" transform="scale(1 1) rotate(0) translate(4 201.616)">
<title>node_shape</title>
<polygon fill="#ffffff" stroke="transparent" points="-4,4 -4,-201.616 188.7546,-201.616 188.7546,4 -4,4"/>
<!-- a -->
<g id="node1" class="node">
<title>a</title>
<polygon fill="#add8e6" stroke="#add8e6" points="89.9461,-176.3308 63,-188.68 36.0539,-176.3308 46.3464,-156.3493 79.6536,-156.3493 89.9461,-176.3308"/>
<polygon fill="none" stroke="#add8e6" points="95.3974,-178.2052 63,-193.0527 30.6026,-178.2052 43.9064,-152.3777 82.0936,-152.3777 95.3974,-178.2052"/>
<polygon fill="none" stroke="#add8e6" points="100.8486,-180.0796 63,-197.4254 25.1514,-180.0796 41.4665,-148.4061 84.5335,-148.4061 100.8486,-180.0796"/>
<text text-anchor="middle" x="63" y="-167.108" font-family="Times,serif" font-size="14.00" fill="#000000">a</text>
</g>
<!-- b -->
<g id="node2" class="node">
<title>b</title>
<ellipse fill="none" stroke="#000000" cx="63" cy="-90" rx="27" ry="18"/>
<text text-anchor="middle" x="63" y="-86.3" font-family="Times,serif" font-size="14.00" fill="#000000">b</text>
</g>
<!-- a&#45;&gt;b -->
<g id="edge1" class="edge">
<title>a&#45;&gt;b</title>
<path fill="none" stroke="#000000" d="M63,-148.2985C63,-138.9701 63,-128.047 63,-118.1934"/>
<polygon fill="#000000" stroke="#000000" points="66.5001,-118.0468 63,-108.0469 59.5001,-118.0469 66.5001,-118.0468"/>
</g>
<!-- c -->
<g id="node3" class="node">
<title>c</title>
<polygon fill="none" stroke="#000000" points="54,-36 8.4571,-36 0,0 45.5429,0 54,-36"/>
<text text-anchor="middle" x="27" y="-14.3" font-family="Times,serif" font-size="14.00" fill="#000000">c</text>
</g>
<!-- b&#45;&gt;c -->
<g id="edge2" class="edge">
<title>b&#45;&gt;c</title>
<path fill="none" stroke="#000000" d="M54.2854,-72.5708C50.1772,-64.3544 45.1804,-54.3608 40.5911,-45.1821"/>
<polygon fill="#000000" stroke="#000000" points="43.613,-43.3996 36.0103,-36.0206 37.352,-46.5301 43.613,-43.3996"/>
</g>
<!-- d -->
<g id="node4" class="node">
<title>d</title>
<polygon fill="none" stroke="#000000" points="126,-36 72,-36 72,0 126,0 126,-36"/>
<text text-anchor="middle" x="99" y="-14.3" font-family="Times,serif" font-size="14.00" fill="#000000">d</text>
</g>
<!-- b&#45;&gt;d -->
<g id="edge3" class="edge">
<title>b&#45;&gt;d</title>
<path fill="none" stroke="#000000" d="M71.7146,-72.5708C75.8228,-64.3544 80.8196,-54.3608 85.4089,-45.1821"/>
<polygon fill="#000000" stroke="#000000" points="88.648,-46.5301 89.9897,-36.0206 82.387,-43.3996 88.648,-46.5301"/>
</g>
<!-- e -->
<g id="node5" class="node">
<title>e</title>
<polygon fill="none" stroke="#000000" points="184.5111,-188.808 119.4889,-188.808 138.2484,-152.808 165.7516,-152.808 184.5111,-188.808"/>
<text text-anchor="middle" x="152" y="-167.108" font-family="Times,serif" font-size="14.00" fill="#000000">e</text>
</g>
</g>
</svg>
