<?xml version="1.0" encoding="UTF-8" standalone="no"?>
<!DOCTYPE svg PUBLIC "-//W3C//DTD SVG 1.1//EN"
 "http://www.w3.org/Graphics/SVG/1.1/DTD/svg11.dtd">
<!-- Generated by graphviz version 2.40.1 (0)
 -->
<!-- Title: start Pages: 1 -->
<svg width="116pt" height="188pt"
 viewBox="0.00 0.00 115.79 188.00" xmlns="http://www.w3.org/2000/svg" xmlns:xlink="http://www.w3.org/1999/xlink">
<g id="graph0" class="graph" transform="scale(1 1) rotate(0) translate(4 184)">
<title>start</title>
<polygon fill="#ffffff" stroke="transparent" points="-4,4 -4,-184 111.7935,-184 111.7935,4 -4,4"/>
<!-- hello -->
<g id="node1" class="node">
<title>hello</title>
<ellipse fill="none" stroke="#000000" cx="76.5963" cy="-162" rx="28.6953" ry="18"/>
<text text-anchor="middle" x="76.5963" y="-158.3" font-family="Times,serif" font-size="14.00" fill="#000000">hello</text>
</g>
<!-- graphviz -->
<g id="node2" class="node">
<title>graphviz</title>
<ellipse fill="none" stroke="#000000" cx="41.5963" cy="-90" rx="41.6928" ry="18"/>
<text text-anchor="middle" x="41.5963" y="-86.3" font-family="Times,serif" font-size="14.00" fill="#000000">graphviz</text>
</g>
<!-- hello&#45;&#45;graphviz -->
<g id="edge1" class="edge">
<title>hello&#45;&#45;graphviz</title>
<path fill="none" stroke="#000000" d="M68.1238,-144.5708C62.7018,-133.4171 55.6878,-118.9882 50.234,-107.7689"/>
</g>
<!-- world -->
<g id="node3" class="node">
<title>world</title>
<ellipse fill="none" stroke="#000000" cx="76.5963" cy="-18" rx="31.3957" ry="18"/>
<text text-anchor="middle" x="76.5963" y="-14.3" font-family="Times,serif" font-size="14.00" fill="#000000">world</text>
</g>
<!-- hello&#45;&#45;world -->
<g id="edge2" class="edge">
<title>hello&#45;&#45;world</title>
<path fill="none" stroke="#000000" d="M83.249,-144.2896C86.7999,-133.8861 90.7999,-120.3861 92.5963,-108 94.8928,-92.1657 94.8928,-87.8343 92.5963,-72 90.7999,-59.6139 86.7999,-46.1139 83.249,-35.7104"/>
</g>
<!-- graphviz&#45;&#45;world -->
<g id="edge3" class="edge">
<title>graphviz&#45;&#45;world</title>
<path fill="none" stroke="#000000" d="M50.248,-72.2022C55.7137,-60.9586 62.742,-46.5003 68.1649,-35.3446"/>
</g>
</g>
</svg>
