<?xml version="1.0" encoding="UTF-8" standalone="no"?><svg xmlns="http://www.w3.org/2000/svg" xmlns:xlink="http://www.w3.org/1999/xlink" contentScriptType="application/ecmascript" contentStyleType="text/css" height="521px" preserveAspectRatio="none" style="width:258px;height:521px;" version="1.1" viewBox="0 0 258 521" width="258px" zoomAndPan="magnify"><defs><filter height="300%" id="f3h8qz10fndrx" width="300%" x="-1" y="-1"><feGaussianBlur result="blurOut" stdDeviation="2.0"/><feColorMatrix in="blurOut" result="blurOut2" type="matrix" values="0 0 0 0 0 0 0 0 0 0 0 0 0 0 0 0 0 0 .4 0"/><feOffset dx="4.0" dy="4.0" in="blurOut2" result="blurOut3"/><feBlend in="SourceGraphic" in2="blurOut3" mode="normal"/></filter></defs><g><ellipse cx="131.5" cy="18" fill="#000000" filter="url(#f3h8qz10fndrx)" rx="10" ry="10" style="stroke: none; stroke-width: 1.0;"/><rect fill="#FEFECE" filter="url(#f3h8qz10fndrx)" height="50" rx="12.5" ry="12.5" style="stroke: #A80036; stroke-width: 1.5;" width="50" x="106.5" y="106"/><line style="stroke: #A80036; stroke-width: 1.5;" x1="106.5" x2="156.5" y1="134.19" y2="134.19"/><text fill="#000000" font-family="sans-serif" font-size="14" lengthAdjust="spacingAndGlyphs" textLength="30" x="116.5" y="125.3421">NEW</text><rect fill="#FEFECE" filter="url(#f3h8qz10fndrx)" height="50" rx="12.5" ry="12.5" style="stroke: #A80036; stroke-width: 1.5;" width="106" x="8.5" y="234"/><line style="stroke: #A80036; stroke-width: 1.5;" x1="8.5" x2="114.5" y1="262.19" y2="262.19"/><text fill="#000000" font-family="sans-serif" font-size="14" lengthAdjust="spacingAndGlyphs" textLength="86" x="18.5" y="253.3421">PROCESSING</text><rect fill="#FEFECE" filter="url(#f3h8qz10fndrx)" height="50" rx="12.5" ry="12.5" style="stroke: #A80036; stroke-width: 1.5;" width="111" x="6" y="362"/><line style="stroke: #A80036; stroke-width: 1.5;" x1="6" x2="117" y1="390.19" y2="390.19"/><text fill="#000000" font-family="sans-serif" font-size="14" lengthAdjust="spacingAndGlyphs" textLength="91" x="16" y="381.3421">SUCCESSFULE</text><rect fill="#FEFECE" filter="url(#f3h8qz10fndrx)" height="50" rx="12.5" ry="12.5" style="stroke: #A80036; stroke-width: 1.5;" width="67" x="152" y="362"/><line style="stroke: #A80036; stroke-width: 1.5;" x1="152" x2="219" y1="390.19" y2="390.19"/><text fill="#000000" font-family="sans-serif" font-size="14" lengthAdjust="spacingAndGlyphs" textLength="47" x="162" y="381.3421">FAILED</text><ellipse cx="123.5" cy="500" fill="none" filter="url(#f3h8qz10fndrx)" rx="10" ry="10" style="stroke: #000000; stroke-width: 1.0;"/><ellipse cx="124" cy="500.5" fill="#000000" rx="6" ry="6" style="stroke: none; stroke-width: 1.0;"/><!--link *start to NEW--><path d="M131.5,28.028 C131.5,44.1648 131.5,76.5287 131.5,100.6888 " fill="none" id="*start-NEW" style="stroke: #A80036; stroke-width: 1.0;"/><polygon fill="#A80036" points="131.5,105.7109,135.5,96.7109,131.5,100.7109,127.5,96.7109,131.5,105.7109" style="stroke: #A80036; stroke-width: 1.0;"/><text fill="#000000" font-family="sans-serif" font-size="13" lengthAdjust="spacingAndGlyphs" textLength="74" x="132.5" y="72.3099">task created</text><!--link NEW to PROCESSING--><path d="M106.4612,141.0236 C88.1137,149.8584 64.5588,164.6705 53.5,186 C46.7577,199.004 47.6785,215.0391 50.7421,228.7653 " fill="none" id="NEW-PROCESSING" style="stroke: #A80036; stroke-width: 1.0;"/><polygon fill="#A80036" points="51.9575,233.708,53.6926,224.0132,50.7635,228.8527,45.9241,225.9236,51.9575,233.708" style="stroke: #A80036; stroke-width: 1.0;"/><text fill="#000000" font-family="sans-serif" font-size="13" lengthAdjust="spacingAndGlyphs" textLength="126" x="54.5" y="200.3099">task being processing</text><!--link PROCESSING to SUCCESSFULE--><path d="M61.5,284.2887 C61.5,305.0634 61.5,334.555 61.5,356.6109 " fill="none" id="PROCESSING-SUCCESSFULE" style="stroke: #A80036; stroke-width: 1.0;"/><polygon fill="#A80036" points="61.5,361.7639,65.5,352.7639,61.5,356.7639,57.5,352.7639,61.5,361.7639" style="stroke: #A80036; stroke-width: 1.0;"/><text fill="#000000" font-family="sans-serif" font-size="13" lengthAdjust="spacingAndGlyphs" textLength="49" x="62.5" y="328.3099">succeed</text><!--link PROCESSING to FAILED--><path d="M89.6211,284.2234 C99.5679,293.4027 110.7118,303.9857 120.5,314 C134.1519,327.9672 148.6666,344.1307 160.509,357.6926 " fill="none" id="PROCESSING-FAILED" style="stroke: #A80036; stroke-width: 1.0;"/><polygon fill="#A80036" points="164.0945,361.8126,161.2035,352.3976,160.8121,358.0409,155.1688,357.6495,164.0945,361.8126" style="stroke: #A80036; stroke-width: 1.0;"/><text fill="#000000" font-family="sans-serif" font-size="13" lengthAdjust="spacingAndGlyphs" textLength="18" x="137.5" y="328.3099">fail</text><!--link SUCCESSFULE to *end--><path d="M65.4308,412.2922 C68.5051,426.9771 73.7692,445.3993 82.5,460 C89.9354,472.4343 102.1864,483.6707 111.3639,491.0456 " fill="none" id="SUCCESSFULE-*end" style="stroke: #A80036; stroke-width: 1.0;"/><polygon fill="#A80036" points="115.336,494.1528,110.7117,485.457,111.3978,491.0721,105.7827,491.7582,115.336,494.1528" style="stroke: #A80036; stroke-width: 1.0;"/><text fill="#000000" font-family="sans-serif" font-size="13" lengthAdjust="spacingAndGlyphs" textLength="50" x="83.5" y="456.3099">archived</text><!--link FAILED to NEW--><path d="M191.3954,361.7083 C199.2828,322.4224 209.667,245.1098 185.5,186 C180.2693,173.2063 170.4688,161.7829 160.6376,152.7068 " fill="none" id="FAILED-NEW" style="stroke: #A80036; stroke-width: 1.0;"/><polygon fill="#A80036" points="156.7315,149.2188,160.7805,158.1969,160.461,152.5491,166.1089,152.2296,156.7315,149.2188" style="stroke: #A80036; stroke-width: 1.0;"/><text fill="#000000" font-family="sans-serif" font-size="13" lengthAdjust="spacingAndGlyphs" textLength="45" x="201.5" y="264.3099">retrying</text><!--link FAILED to *end--><path d="M171.7402,412.0784 C159.153,435.0196 141.0055,468.0949 130.9385,486.4427 " fill="none" id="FAILED-*end" style="stroke: #A80036; stroke-width: 1.0;"/><polygon fill="#A80036" points="128.3247,491.2066,136.1607,485.2403,130.7298,486.8231,129.1471,481.3921,128.3247,491.2066" style="stroke: #A80036; stroke-width: 1.0;"/><text fill="#000000" font-family="sans-serif" font-size="13" lengthAdjust="spacingAndGlyphs" textLength="50" x="155.5" y="456.3099">archived</text><!--
@startuml

[*] - -> NEW: task created

NEW - -> PROCESSING: task being processing

PROCESSING - -> SUCCESSFULE: succeed
PROCESSING - -> FAILED: fail

SUCCESSFULE - -> [*]: archived

FAILED - -> NEW: retrying
FAILED - -> [*]: archived

@enduml

PlantUML version 1.2018.00(Fri Jan 05 03:42:56 CST 2018)
(GPL source distribution)
Java Runtime: Java(TM) SE Runtime Environment
JVM: Java HotSpot(TM) 64-Bit GraalVM EE 19.2.0
Java Version: 1.8.0_221-b11
Operating System: Linux
OS Version: 5.2.11-arch1-1-ARCH
Default Encoding: UTF-8
Language: en
Country: US
--></g></svg>