<?xml version="1.0" encoding="UTF-8" standalone="no"?>
<!DOCTYPE svg PUBLIC "-//W3C//DTD SVG 1.1//EN"
 "http://www.w3.org/Graphics/SVG/1.1/DTD/svg11.dtd">
<!-- Generated by graphviz version 2.40.1 (0)
 -->
<!-- Title: work_flow Pages: 1 -->
<svg width="204pt" height="407pt"
 viewBox="0.00 0.00 204.00 407.00" xmlns="http://www.w3.org/2000/svg" xmlns:xlink="http://www.w3.org/1999/xlink">
<g id="graph0" class="graph" transform="scale(1 1) rotate(0) translate(4 403)">
<title>work_flow</title>
<polygon fill="#ffffff" stroke="transparent" points="-4,4 -4,-403 200,-403 200,4 -4,4"/>
<g id="clust1" class="cluster">
<title>cluster0</title>
<polygon fill="#d3d3d3" stroke="#d3d3d3" points="8,-64 8,-355 78,-355 78,-64 8,-64"/>
<text text-anchor="middle" x="43" y="-339.8" font-family="Times,serif" font-size="14.00" fill="#000000">prcess #1</text>
</g>
<g id="clust2" class="cluster">
<title>cluster1</title>
<polygon fill="none" stroke="#0000ff" points="114,-64 114,-355 188,-355 188,-64 114,-64"/>
<text text-anchor="middle" x="151" y="-339.8" font-family="Times,serif" font-size="14.00" fill="#000000">process #2</text>
</g>
<!-- a0 -->
<g id="node1" class="node">
<title>a0</title>
<ellipse fill="#ffffff" stroke="#ffffff" cx="43" cy="-306" rx="27" ry="18"/>
<text text-anchor="middle" x="43" y="-302.3" font-family="Times,serif" font-size="14.00" fill="#000000">a0</text>
</g>
<!-- a1 -->
<g id="node2" class="node">
<title>a1</title>
<ellipse fill="#ffffff" stroke="#ffffff" cx="43" cy="-234" rx="27" ry="18"/>
<text text-anchor="middle" x="43" y="-230.3" font-family="Times,serif" font-size="14.00" fill="#000000">a1</text>
</g>
<!-- a0&#45;&gt;a1 -->
<g id="edge1" class="edge">
<title>a0&#45;&gt;a1</title>
<path fill="none" stroke="#000000" d="M43,-287.8314C43,-280.131 43,-270.9743 43,-262.4166"/>
<polygon fill="#000000" stroke="#000000" points="46.5001,-262.4132 43,-252.4133 39.5001,-262.4133 46.5001,-262.4132"/>
</g>
<!-- a2 -->
<g id="node3" class="node">
<title>a2</title>
<ellipse fill="#ffffff" stroke="#ffffff" cx="43" cy="-162" rx="27" ry="18"/>
<text text-anchor="middle" x="43" y="-158.3" font-family="Times,serif" font-size="14.00" fill="#000000">a2</text>
</g>
<!-- a1&#45;&gt;a2 -->
<g id="edge2" class="edge">
<title>a1&#45;&gt;a2</title>
<path fill="none" stroke="#000000" d="M43,-215.8314C43,-208.131 43,-198.9743 43,-190.4166"/>
<polygon fill="#000000" stroke="#000000" points="46.5001,-190.4132 43,-180.4133 39.5001,-190.4133 46.5001,-190.4132"/>
</g>
<!-- b3 -->
<g id="node8" class="node">
<title>b3</title>
<ellipse fill="#d3d3d3" stroke="#000000" cx="149" cy="-90" rx="27" ry="18"/>
<text text-anchor="middle" x="149" y="-86.3" font-family="Times,serif" font-size="14.00" fill="#000000">b3</text>
</g>
<!-- a1&#45;&gt;b3 -->
<g id="edge9" class="edge">
<title>a1&#45;&gt;b3</title>
<path fill="none" stroke="#000000" d="M54.9535,-217.7613C73.4826,-192.5897 109.2577,-143.9895 130.9466,-114.5254"/>
<polygon fill="#000000" stroke="#000000" points="133.818,-116.5286 136.9276,-106.4003 128.1807,-112.3788 133.818,-116.5286"/>
</g>
<!-- a3 -->
<g id="node4" class="node">
<title>a3</title>
<ellipse fill="#ffffff" stroke="#ffffff" cx="43" cy="-90" rx="27" ry="18"/>
<text text-anchor="middle" x="43" y="-86.3" font-family="Times,serif" font-size="14.00" fill="#000000">a3</text>
</g>
<!-- a2&#45;&gt;a3 -->
<g id="edge3" class="edge">
<title>a2&#45;&gt;a3</title>
<path fill="none" stroke="#000000" d="M43,-143.8314C43,-136.131 43,-126.9743 43,-118.4166"/>
<polygon fill="#000000" stroke="#000000" points="46.5001,-118.4132 43,-108.4133 39.5001,-118.4133 46.5001,-118.4132"/>
</g>
<!-- end -->
<g id="node10" class="node">
<title>end</title>
<polygon fill="none" stroke="#000000" points="114,-36 78,-36 78,0 114,0 114,-36"/>
<polyline fill="none" stroke="#000000" points="90,-36 78,-24 "/>
<polyline fill="none" stroke="#000000" points="78,-12 90,0 "/>
<polyline fill="none" stroke="#000000" points="102,0 114,-12 "/>
<polyline fill="none" stroke="#000000" points="114,-24 102,-36 "/>
<text text-anchor="middle" x="96" y="-14.3" font-family="Times,serif" font-size="14.00" fill="#000000">end</text>
</g>
<!-- a3&#45;&gt;end -->
<g id="edge11" class="edge">
<title>a3&#45;&gt;end</title>
<path fill="none" stroke="#000000" d="M55.0265,-73.6621C61.4044,-64.9978 69.3958,-54.1415 76.6236,-44.3227"/>
<polygon fill="#000000" stroke="#000000" points="79.6093,-46.1706 82.7188,-36.0423 73.9719,-42.0209 79.6093,-46.1706"/>
</g>
<!-- b0 -->
<g id="node5" class="node">
<title>b0</title>
<ellipse fill="#d3d3d3" stroke="#000000" cx="149" cy="-306" rx="27" ry="18"/>
<text text-anchor="middle" x="149" y="-302.3" font-family="Times,serif" font-size="14.00" fill="#000000">b0</text>
</g>
<!-- b1 -->
<g id="node6" class="node">
<title>b1</title>
<ellipse fill="#d3d3d3" stroke="#000000" cx="151" cy="-234" rx="27" ry="18"/>
<text text-anchor="middle" x="151" y="-230.3" font-family="Times,serif" font-size="14.00" fill="#000000">b1</text>
</g>
<!-- b0&#45;&gt;b1 -->
<g id="edge4" class="edge">
<title>b0&#45;&gt;b1</title>
<path fill="none" stroke="#000000" d="M149.5047,-287.8314C149.7186,-280.131 149.9729,-270.9743 150.2106,-262.4166"/>
<polygon fill="#000000" stroke="#000000" points="153.7094,-262.5066 150.4885,-252.4133 146.7121,-262.3122 153.7094,-262.5066"/>
</g>
<!-- b2 -->
<g id="node7" class="node">
<title>b2</title>
<ellipse fill="#d3d3d3" stroke="#000000" cx="153" cy="-162" rx="27" ry="18"/>
<text text-anchor="middle" x="153" y="-158.3" font-family="Times,serif" font-size="14.00" fill="#000000">b2</text>
</g>
<!-- b1&#45;&gt;b2 -->
<g id="edge5" class="edge">
<title>b1&#45;&gt;b2</title>
<path fill="none" stroke="#000000" d="M151.5047,-215.8314C151.7186,-208.131 151.9729,-198.9743 152.2106,-190.4166"/>
<polygon fill="#000000" stroke="#000000" points="155.7094,-190.5066 152.4885,-180.4133 148.7121,-190.3122 155.7094,-190.5066"/>
</g>
<!-- b2&#45;&gt;a3 -->
<g id="edge10" class="edge">
<title>b2&#45;&gt;a3</title>
<path fill="none" stroke="#000000" d="M133.5874,-149.2936C116.258,-137.9507 90.6682,-121.201 71.1028,-108.3946"/>
<polygon fill="#000000" stroke="#000000" points="72.8724,-105.3698 62.5885,-102.8216 69.0387,-111.2267 72.8724,-105.3698"/>
</g>
<!-- b2&#45;&gt;b3 -->
<g id="edge6" class="edge">
<title>b2&#45;&gt;b3</title>
<path fill="none" stroke="#000000" d="M151.9906,-143.8314C151.5628,-136.131 151.0541,-126.9743 150.5787,-118.4166"/>
<polygon fill="#000000" stroke="#000000" points="154.0724,-118.2037 150.023,-108.4133 147.0831,-118.592 154.0724,-118.2037"/>
</g>
<!-- b3&#45;&gt;end -->
<g id="edge12" class="edge">
<title>b3&#45;&gt;end</title>
<path fill="none" stroke="#000000" d="M136.9735,-73.6621C130.5956,-64.9978 122.6042,-54.1415 115.3764,-44.3227"/>
<polygon fill="#000000" stroke="#000000" points="118.0281,-42.0209 109.2812,-36.0423 112.3907,-46.1706 118.0281,-42.0209"/>
</g>
<!-- start -->
<g id="node9" class="node">
<title>start</title>
<polygon fill="none" stroke="#000000" points="96,-399 59.4659,-381 96,-363 132.5341,-381 96,-399"/>
<polyline fill="none" stroke="#000000" points="70.2304,-386.3035 70.2304,-375.6965 "/>
<polyline fill="none" stroke="#000000" points="85.2356,-368.3035 106.7644,-368.3035 "/>
<polyline fill="none" stroke="#000000" points="121.7696,-375.6965 121.7696,-386.3035 "/>
<polyline fill="none" stroke="#000000" points="106.7644,-393.6965 85.2356,-393.6965 "/>
<text text-anchor="middle" x="96" y="-377.3" font-family="Times,serif" font-size="14.00" fill="#000000">start</text>
</g>
<!-- start&#45;&gt;a0 -->
<g id="edge7" class="edge">
<title>start&#45;&gt;a0</title>
<path fill="none" stroke="#000000" d="M86.5247,-367.5915C79.3368,-357.4201 69.2512,-343.1479 60.5982,-330.9031"/>
<polygon fill="#000000" stroke="#000000" points="63.2421,-328.5798 54.6126,-322.433 57.5255,-332.6196 63.2421,-328.5798"/>
</g>
<!-- start&#45;&gt;b0 -->
<g id="edge8" class="edge">
<title>start&#45;&gt;b0</title>
<path fill="none" stroke="#000000" d="M105.4753,-367.5915C112.6632,-357.4201 122.7488,-343.1479 131.4018,-330.9031"/>
<polygon fill="#000000" stroke="#000000" points="134.4745,-332.6196 137.3874,-322.433 128.7579,-328.5798 134.4745,-332.6196"/>
</g>
</g>
</svg>
