<?xml version="1.0" encoding="UTF-8" standalone="no"?>
<!DOCTYPE svg PUBLIC "-//W3C//DTD SVG 1.1//EN"
 "http://www.w3.org/Graphics/SVG/1.1/DTD/svg11.dtd">
<!-- Generated by graphviz version 2.40.1 (0)
 -->
<!-- Title: overview Pages: 1 -->
<svg width="728pt" height="305pt"
 viewBox="0.00 0.00 728.23 305.00" xmlns="http://www.w3.org/2000/svg" xmlns:xlink="http://www.w3.org/1999/xlink">
<g id="graph0" class="graph" transform="scale(1 1) rotate(0) translate(4 301)">
<title>overview</title>
<polygon fill="#ffffff" stroke="transparent" points="-4,4 -4,-301 724.2311,-301 724.2311,4 -4,4"/>
<!-- cacheClient -->
<g id="node1" class="node">
<title>cacheClient</title>
<ellipse fill="none" stroke="#000000" cx="395.2311" cy="-279" rx="56.59" ry="18"/>
<text text-anchor="middle" x="395.2311" y="-275.3" font-family="Times,serif" font-size="14.00" fill="#000000">Cache Client</text>
</g>
<!-- sessionsQueue -->
<g id="node2" class="node">
<title>sessionsQueue</title>
<ellipse fill="none" stroke="#000000" cx="254.2311" cy="-192" rx="96.6831" ry="18"/>
<text text-anchor="middle" x="254.2311" y="-188.3" font-family="Times,serif" font-size="14.00" fill="#000000">Session Requests Queue</text>
</g>
<!-- cacheClient&#45;&gt;sessionsQueue -->
<g id="edge5" class="edge">
<title>cacheClient&#45;&gt;sessionsQueue</title>
<path fill="none" stroke="#ff0000" d="M368.7686,-262.9194C358.5855,-256.7141 346.856,-249.5454 336.2311,-243 321.2191,-233.7519 304.7019,-223.4948 290.4499,-214.6187"/>
<polygon fill="#ff0000" stroke="#ff0000" points="292.2405,-211.6106 281.9025,-209.2918 288.5381,-217.5513 292.2405,-211.6106"/>
<text text-anchor="middle" x="443.2311" y="-231.8" font-family="Times,serif" font-size="14.00" fill="#000000">USER THREAD put request bytes into</text>
</g>
<!-- outputSocket -->
<g id="node4" class="node">
<title>outputSocket</title>
<ellipse fill="none" stroke="#000000" cx="171.2311" cy="-105" rx="92.8835" ry="18"/>
<text text-anchor="middle" x="171.2311" y="-101.3" font-family="Times,serif" font-size="14.00" fill="#000000">Socket Output Channel</text>
</g>
<!-- sessionsQueue&#45;&gt;outputSocket -->
<g id="edge3" class="edge">
<title>sessionsQueue&#45;&gt;outputSocket</title>
<path fill="none" stroke="#00ff00" d="M164.9679,-184.8841C97.2385,-178.5536 13.9718,-168.3912 3.2311,-156 -1.1355,-150.9624 -.9601,-146.1844 3.2311,-141 13.3429,-128.4918 44.7492,-120.1335 77.7142,-114.6483"/>
<polygon fill="#00ff00" stroke="#00ff00" points="78.6372,-118.0463 87.9729,-113.0368 77.5509,-111.1311 78.6372,-118.0463"/>
<text text-anchor="middle" x="104.2311" y="-144.8" font-family="Times,serif" font-size="14.00" fill="#000000">WRITE THREAD polls output bytes</text>
</g>
<!-- countdownLatch -->
<g id="node5" class="node">
<title>countdownLatch</title>
<ellipse fill="none" stroke="#000000" cx="463.2311" cy="-105" rx="69.5877" ry="18"/>
<text text-anchor="middle" x="463.2311" y="-101.3" font-family="Times,serif" font-size="14.00" fill="#000000">countdownLatch</text>
</g>
<!-- sessionsQueue&#45;&gt;countdownLatch -->
<g id="edge6" class="edge">
<title>sessionsQueue&#45;&gt;countdownLatch</title>
<path fill="none" stroke="#ff0000" d="M315.1369,-177.9394C335.8913,-172.2412 358.9604,-164.8835 379.2311,-156 389.2135,-151.6253 410.1549,-138.9139 428.63,-127.277"/>
<polygon fill="#ff0000" stroke="#ff0000" points="430.5952,-130.1753 437.1688,-121.8663 426.8484,-124.2624 430.5952,-130.1753"/>
<text text-anchor="middle" x="477.2311" y="-144.8" font-family="Times,serif" font-size="14.00" fill="#000000">USER THREAD waits on</text>
</g>
<!-- inputSocket -->
<g id="node3" class="node">
<title>inputSocket</title>
<ellipse fill="none" stroke="#000000" cx="463.2311" cy="-18" rx="87.1846" ry="18"/>
<text text-anchor="middle" x="463.2311" y="-14.3" font-family="Times,serif" font-size="14.00" fill="#000000">Socket Input Channel</text>
</g>
<!-- inputSocket&#45;&gt;countdownLatch -->
<g id="edge1" class="edge">
<title>inputSocket&#45;&gt;countdownLatch</title>
<path fill="none" stroke="#0000ff" d="M507.023,-33.7701C523.6852,-42.4431 536.824,-54.418 528.2311,-69 524.494,-75.3418 519.1934,-80.6451 513.212,-85.0577"/>
<polygon fill="#0000ff" stroke="#0000ff" points="511.2233,-82.1754 504.7164,-90.5367 515.0173,-88.0581 511.2233,-82.1754"/>
<text text-anchor="middle" x="625.7311" y="-57.8" font-family="Times,serif" font-size="14.00" fill="#000000">READ THREAD polls input bytes</text>
</g>
<!-- outputSocket&#45;&gt;sessionsQueue -->
<g id="edge4" class="edge">
<title>outputSocket&#45;&gt;sessionsQueue</title>
<path fill="none" stroke="#00ff00" d="M188.1227,-122.7057C200.1495,-135.312 216.4926,-152.4428 229.9198,-166.5171"/>
<polygon fill="#00ff00" stroke="#00ff00" points="227.5982,-169.1541 237.0334,-173.9735 232.6631,-164.3221 227.5982,-169.1541"/>
<text text-anchor="middle" x="296.7311" y="-144.8" font-family="Times,serif" font-size="14.00" fill="#000000">WRITE THREAD loop next</text>
</g>
<!-- countdownLatch&#45;&gt;cacheClient -->
<g id="edge7" class="edge">
<title>countdownLatch&#45;&gt;cacheClient</title>
<path fill="none" stroke="#ff0000" d="M517.4911,-116.2672C530.3246,-121.5994 542.5098,-129.4487 550.2311,-141 575.4237,-178.6888 578.4284,-207.5032 550.2311,-243 538.7653,-257.4341 497.1317,-266.6023 459.8993,-272.0724"/>
<polygon fill="#ff0000" stroke="#ff0000" points="458.9631,-268.6691 449.5433,-273.5185 459.9312,-275.6018 458.9631,-268.6691"/>
<text text-anchor="middle" x="640.7311" y="-188.3" font-family="Times,serif" font-size="14.00" fill="#000000">USER THREAD wakeup</text>
</g>
<!-- countdownLatch&#45;&gt;inputSocket -->
<g id="edge2" class="edge">
<title>countdownLatch&#45;&gt;inputSocket</title>
<path fill="none" stroke="#0000ff" d="M409.1739,-93.6753C383.7382,-85.6503 361.4882,-72.9003 374.2311,-54 379.1869,-46.6495 385.9252,-40.7994 393.4914,-36.1435"/>
<polygon fill="#0000ff" stroke="#0000ff" points="395.5372,-39.018 402.6965,-31.2081 392.2294,-32.8488 395.5372,-39.018"/>
<text text-anchor="middle" x="449.2311" y="-57.8" font-family="Times,serif" font-size="14.00" fill="#000000">READ THREAD loop next</text>
</g>
</g>
</svg>
