<?xml version="1.0" encoding="UTF-8" standalone="no"?><svg xmlns="http://www.w3.org/2000/svg" xmlns:xlink="http://www.w3.org/1999/xlink" contentScriptType="application/ecmascript" contentStyleType="text/css" height="607px" preserveAspectRatio="none" style="width:627px;height:607px;" version="1.1" viewBox="0 0 627 607" width="627px" zoomAndPan="magnify"><defs><filter height="300%" id="fnjr4s571teu7" width="300%" x="-1" y="-1"><feGaussianBlur result="blurOut" stdDeviation="2.0"/><feColorMatrix in="blurOut" result="blurOut2" type="matrix" values="0 0 0 0 0 0 0 0 0 0 0 0 0 0 0 0 0 0 .4 0"/><feOffset dx="4.0" dy="4.0" in="blurOut2" result="blurOut3"/><feBlend in="SourceGraphic" in2="blurOut3" mode="normal"/></filter></defs><g><!--class Command--><rect fill="#FEFECE" filter="url(#fnjr4s571teu7)" height="48" id="Command" style="stroke: #A80036; stroke-width: 1.5;" width="86" x="258" y="224"/><ellipse cx="273" cy="240" fill="#ADD1B2" rx="11" ry="11" style="stroke: #A80036; stroke-width: 1.0;"/><path d="M272.875,246.2031 Q270.4844,246.2031 269.3438,244.5938 Q268.2031,242.9844 268.2031,240.0625 Q268.2031,237.1406 269.3438,235.5391 Q270.4844,233.9375 272.875,233.9375 Q273.7969,233.9375 274.5,234.1797 Q275.2031,234.4219 275.7109,234.8672 Q276.2188,235.3125 276.5547,235.9375 Q276.8906,236.5625 277.0781,237.3438 L274.6875,237.9219 Q274.5938,237.5 274.4531,237.1406 Q274.3125,236.7813 274.1016,236.5313 Q273.8906,236.2813 273.5781,236.1328 Q273.2656,235.9844 272.8281,235.9844 Q271.7813,235.9844 271.3516,236.7969 Q270.9219,237.6094 270.9219,239.0313 L270.9219,241.1094 Q270.9219,242.5313 271.3516,243.3359 Q271.7813,244.1406 272.8281,244.1406 Q273.7031,244.1406 274.1016,243.6016 Q274.5,243.0625 274.6875,242.2031 L277.0781,242.7813 Q276.8906,243.5625 276.5547,244.1953 Q276.2188,244.8281 275.7109,245.2813 Q275.2031,245.7344 274.5,245.9688 Q273.7969,246.2031 272.875,246.2031 Z "/><text fill="#000000" font-family="sans-serif" font-size="12" lengthAdjust="spacingAndGlyphs" textLength="54" x="287" y="244.4975">Command</text><line style="stroke: #A80036; stroke-width: 1.5;" x1="259" x2="343" y1="256" y2="256"/><line style="stroke: #A80036; stroke-width: 1.5;" x1="259" x2="343" y1="264" y2="264"/><!--class EchoCommand--><rect fill="#FEFECE" filter="url(#fnjr4s571teu7)" height="48" id="EchoCommand" style="stroke: #A80036; stroke-width: 1.5;" width="113" x="173.5" y="332"/><ellipse cx="188.5" cy="348" fill="#ADD1B2" rx="11" ry="11" style="stroke: #A80036; stroke-width: 1.0;"/><path d="M188.375,354.2031 Q185.9844,354.2031 184.8438,352.5938 Q183.7031,350.9844 183.7031,348.0625 Q183.7031,345.1406 184.8438,343.5391 Q185.9844,341.9375 188.375,341.9375 Q189.2969,341.9375 190,342.1797 Q190.7031,342.4219 191.2109,342.8672 Q191.7188,343.3125 192.0547,343.9375 Q192.3906,344.5625 192.5781,345.3438 L190.1875,345.9219 Q190.0938,345.5 189.9531,345.1406 Q189.8125,344.7813 189.6016,344.5313 Q189.3906,344.2813 189.0781,344.1328 Q188.7656,343.9844 188.3281,343.9844 Q187.2813,343.9844 186.8516,344.7969 Q186.4219,345.6094 186.4219,347.0313 L186.4219,349.1094 Q186.4219,350.5313 186.8516,351.3359 Q187.2813,352.1406 188.3281,352.1406 Q189.2031,352.1406 189.6016,351.6016 Q190,351.0625 190.1875,350.2031 L192.5781,350.7813 Q192.3906,351.5625 192.0547,352.1953 Q191.7188,352.8281 191.2109,353.2813 Q190.7031,353.7344 190,353.9688 Q189.2969,354.2031 188.375,354.2031 Z "/><text fill="#000000" font-family="sans-serif" font-size="12" lengthAdjust="spacingAndGlyphs" textLength="81" x="202.5" y="352.4975">EchoCommand</text><line style="stroke: #A80036; stroke-width: 1.5;" x1="174.5" x2="285.5" y1="364" y2="364"/><line style="stroke: #A80036; stroke-width: 1.5;" x1="174.5" x2="285.5" y1="372" y2="372"/><!--class ExitCommand--><rect fill="#FEFECE" filter="url(#fnjr4s571teu7)" height="48" id="ExitCommand" style="stroke: #A80036; stroke-width: 1.5;" width="106" x="460" y="332"/><ellipse cx="475" cy="348" fill="#ADD1B2" rx="11" ry="11" style="stroke: #A80036; stroke-width: 1.0;"/><path d="M474.875,354.2031 Q472.4844,354.2031 471.3438,352.5938 Q470.2031,350.9844 470.2031,348.0625 Q470.2031,345.1406 471.3438,343.5391 Q472.4844,341.9375 474.875,341.9375 Q475.7969,341.9375 476.5,342.1797 Q477.2031,342.4219 477.7109,342.8672 Q478.2188,343.3125 478.5547,343.9375 Q478.8906,344.5625 479.0781,345.3438 L476.6875,345.9219 Q476.5938,345.5 476.4531,345.1406 Q476.3125,344.7813 476.1016,344.5313 Q475.8906,344.2813 475.5781,344.1328 Q475.2656,343.9844 474.8281,343.9844 Q473.7813,343.9844 473.3516,344.7969 Q472.9219,345.6094 472.9219,347.0313 L472.9219,349.1094 Q472.9219,350.5313 473.3516,351.3359 Q473.7813,352.1406 474.8281,352.1406 Q475.7031,352.1406 476.1016,351.6016 Q476.5,351.0625 476.6875,350.2031 L479.0781,350.7813 Q478.8906,351.5625 478.5547,352.1953 Q478.2188,352.8281 477.7109,353.2813 Q477.2031,353.7344 476.5,353.9688 Q475.7969,354.2031 474.875,354.2031 Z "/><text fill="#000000" font-family="sans-serif" font-size="12" lengthAdjust="spacingAndGlyphs" textLength="74" x="489" y="352.4975">ExitCommand</text><line style="stroke: #A80036; stroke-width: 1.5;" x1="461" x2="565" y1="364" y2="364"/><line style="stroke: #A80036; stroke-width: 1.5;" x1="461" x2="565" y1="372" y2="372"/><!--class SetCommand--><rect fill="#FEFECE" filter="url(#fnjr4s571teu7)" height="48" id="SetCommand" style="stroke: #A80036; stroke-width: 1.5;" width="104" x="34" y="332"/><ellipse cx="49" cy="348" fill="#ADD1B2" rx="11" ry="11" style="stroke: #A80036; stroke-width: 1.0;"/><path d="M48.875,354.2031 Q46.4844,354.2031 45.3438,352.5938 Q44.2031,350.9844 44.2031,348.0625 Q44.2031,345.1406 45.3438,343.5391 Q46.4844,341.9375 48.875,341.9375 Q49.7969,341.9375 50.5,342.1797 Q51.2031,342.4219 51.7109,342.8672 Q52.2188,343.3125 52.5547,343.9375 Q52.8906,344.5625 53.0781,345.3438 L50.6875,345.9219 Q50.5938,345.5 50.4531,345.1406 Q50.3125,344.7813 50.1016,344.5313 Q49.8906,344.2813 49.5781,344.1328 Q49.2656,343.9844 48.8281,343.9844 Q47.7813,343.9844 47.3516,344.7969 Q46.9219,345.6094 46.9219,347.0313 L46.9219,349.1094 Q46.9219,350.5313 47.3516,351.3359 Q47.7813,352.1406 48.8281,352.1406 Q49.7031,352.1406 50.1016,351.6016 Q50.5,351.0625 50.6875,350.2031 L53.0781,350.7813 Q52.8906,351.5625 52.5547,352.1953 Q52.2188,352.8281 51.7109,353.2813 Q51.2031,353.7344 50.5,353.9688 Q49.7969,354.2031 48.875,354.2031 Z "/><text fill="#000000" font-family="sans-serif" font-size="12" lengthAdjust="spacingAndGlyphs" textLength="72" x="63" y="352.4975">SetCommand</text><line style="stroke: #A80036; stroke-width: 1.5;" x1="35" x2="137" y1="364" y2="364"/><line style="stroke: #A80036; stroke-width: 1.5;" x1="35" x2="137" y1="372" y2="372"/><!--class SqlCommand--><rect fill="#FEFECE" filter="url(#fnjr4s571teu7)" height="48" id="SqlCommand" style="stroke: #A80036; stroke-width: 1.5;" width="103" x="321.5" y="332"/><ellipse cx="336.5" cy="348" fill="#ADD1B2" rx="11" ry="11" style="stroke: #A80036; stroke-width: 1.0;"/><path d="M336.375,354.2031 Q333.9844,354.2031 332.8438,352.5938 Q331.7031,350.9844 331.7031,348.0625 Q331.7031,345.1406 332.8438,343.5391 Q333.9844,341.9375 336.375,341.9375 Q337.2969,341.9375 338,342.1797 Q338.7031,342.4219 339.2109,342.8672 Q339.7188,343.3125 340.0547,343.9375 Q340.3906,344.5625 340.5781,345.3438 L338.1875,345.9219 Q338.0938,345.5 337.9531,345.1406 Q337.8125,344.7813 337.6016,344.5313 Q337.3906,344.2813 337.0781,344.1328 Q336.7656,343.9844 336.3281,343.9844 Q335.2813,343.9844 334.8516,344.7969 Q334.4219,345.6094 334.4219,347.0313 L334.4219,349.1094 Q334.4219,350.5313 334.8516,351.3359 Q335.2813,352.1406 336.3281,352.1406 Q337.2031,352.1406 337.6016,351.6016 Q338,351.0625 338.1875,350.2031 L340.5781,350.7813 Q340.3906,351.5625 340.0547,352.1953 Q339.7188,352.8281 339.2109,353.2813 Q338.7031,353.7344 338,353.9688 Q337.2969,354.2031 336.375,354.2031 Z "/><text fill="#000000" font-family="sans-serif" font-size="12" lengthAdjust="spacingAndGlyphs" textLength="71" x="350.5" y="352.4975">SqlCommand</text><line style="stroke: #A80036; stroke-width: 1.5;" x1="322.5" x2="423.5" y1="364" y2="364"/><line style="stroke: #A80036; stroke-width: 1.5;" x1="322.5" x2="423.5" y1="372" y2="372"/><!--class GlobalContext--><rect fill="#FEFECE" filter="url(#fnjr4s571teu7)" height="48" id="GlobalContext" style="stroke: #A80036; stroke-width: 1.5;" width="108" x="6" y="440"/><ellipse cx="21" cy="456" fill="#ADD1B2" rx="11" ry="11" style="stroke: #A80036; stroke-width: 1.0;"/><path d="M20.875,462.2031 Q18.4844,462.2031 17.3438,460.5938 Q16.2031,458.9844 16.2031,456.0625 Q16.2031,453.1406 17.3438,451.5391 Q18.4844,449.9375 20.875,449.9375 Q21.7969,449.9375 22.5,450.1797 Q23.2031,450.4219 23.7109,450.8672 Q24.2188,451.3125 24.5547,451.9375 Q24.8906,452.5625 25.0781,453.3438 L22.6875,453.9219 Q22.5938,453.5 22.4531,453.1406 Q22.3125,452.7813 22.1016,452.5313 Q21.8906,452.2813 21.5781,452.1328 Q21.2656,451.9844 20.8281,451.9844 Q19.7813,451.9844 19.3516,452.7969 Q18.9219,453.6094 18.9219,455.0313 L18.9219,457.1094 Q18.9219,458.5313 19.3516,459.3359 Q19.7813,460.1406 20.8281,460.1406 Q21.7031,460.1406 22.1016,459.6016 Q22.5,459.0625 22.6875,458.2031 L25.0781,458.7813 Q24.8906,459.5625 24.5547,460.1953 Q24.2188,460.8281 23.7109,461.2813 Q23.2031,461.7344 22.5,461.9688 Q21.7969,462.2031 20.875,462.2031 Z "/><text fill="#000000" font-family="sans-serif" font-size="12" lengthAdjust="spacingAndGlyphs" textLength="76" x="35" y="460.4975">GlobalContext</text><line style="stroke: #A80036; stroke-width: 1.5;" x1="7" x2="113" y1="472" y2="472"/><line style="stroke: #A80036; stroke-width: 1.5;" x1="7" x2="113" y1="480" y2="480"/><!--class Stderr--><rect fill="#FEFECE" filter="url(#fnjr4s571teu7)" height="48" id="Stderr" style="stroke: #A80036; stroke-width: 1.5;" width="65" x="149.5" y="440"/><ellipse cx="164.5" cy="456" fill="#ADD1B2" rx="11" ry="11" style="stroke: #A80036; stroke-width: 1.0;"/><path d="M164.375,462.2031 Q161.9844,462.2031 160.8438,460.5938 Q159.7031,458.9844 159.7031,456.0625 Q159.7031,453.1406 160.8438,451.5391 Q161.9844,449.9375 164.375,449.9375 Q165.2969,449.9375 166,450.1797 Q166.7031,450.4219 167.2109,450.8672 Q167.7188,451.3125 168.0547,451.9375 Q168.3906,452.5625 168.5781,453.3438 L166.1875,453.9219 Q166.0938,453.5 165.9531,453.1406 Q165.8125,452.7813 165.6016,452.5313 Q165.3906,452.2813 165.0781,452.1328 Q164.7656,451.9844 164.3281,451.9844 Q163.2813,451.9844 162.8516,452.7969 Q162.4219,453.6094 162.4219,455.0313 L162.4219,457.1094 Q162.4219,458.5313 162.8516,459.3359 Q163.2813,460.1406 164.3281,460.1406 Q165.2031,460.1406 165.6016,459.6016 Q166,459.0625 166.1875,458.2031 L168.5781,458.7813 Q168.3906,459.5625 168.0547,460.1953 Q167.7188,460.8281 167.2109,461.2813 Q166.7031,461.7344 166,461.9688 Q165.2969,462.2031 164.375,462.2031 Z "/><text fill="#000000" font-family="sans-serif" font-size="12" lengthAdjust="spacingAndGlyphs" textLength="33" x="178.5" y="460.4975">Stderr</text><line style="stroke: #A80036; stroke-width: 1.5;" x1="150.5" x2="213.5" y1="472" y2="472"/><line style="stroke: #A80036; stroke-width: 1.5;" x1="150.5" x2="213.5" y1="480" y2="480"/><!--class Stdout--><rect fill="#FEFECE" filter="url(#fnjr4s571teu7)" height="48" id="Stdout" style="stroke: #A80036; stroke-width: 1.5;" width="68" x="250" y="440"/><ellipse cx="265" cy="456" fill="#ADD1B2" rx="11" ry="11" style="stroke: #A80036; stroke-width: 1.0;"/><path d="M264.875,462.2031 Q262.4844,462.2031 261.3438,460.5938 Q260.2031,458.9844 260.2031,456.0625 Q260.2031,453.1406 261.3438,451.5391 Q262.4844,449.9375 264.875,449.9375 Q265.7969,449.9375 266.5,450.1797 Q267.2031,450.4219 267.7109,450.8672 Q268.2188,451.3125 268.5547,451.9375 Q268.8906,452.5625 269.0781,453.3438 L266.6875,453.9219 Q266.5938,453.5 266.4531,453.1406 Q266.3125,452.7813 266.1016,452.5313 Q265.8906,452.2813 265.5781,452.1328 Q265.2656,451.9844 264.8281,451.9844 Q263.7813,451.9844 263.3516,452.7969 Q262.9219,453.6094 262.9219,455.0313 L262.9219,457.1094 Q262.9219,458.5313 263.3516,459.3359 Q263.7813,460.1406 264.8281,460.1406 Q265.7031,460.1406 266.1016,459.6016 Q266.5,459.0625 266.6875,458.2031 L269.0781,458.7813 Q268.8906,459.5625 268.5547,460.1953 Q268.2188,460.8281 267.7109,461.2813 Q267.2031,461.7344 266.5,461.9688 Q265.7969,462.2031 264.875,462.2031 Z "/><text fill="#000000" font-family="sans-serif" font-size="12" lengthAdjust="spacingAndGlyphs" textLength="36" x="279" y="460.4975">Stdout</text><line style="stroke: #A80036; stroke-width: 1.5;" x1="251" x2="317" y1="472" y2="472"/><line style="stroke: #A80036; stroke-width: 1.5;" x1="251" x2="317" y1="480" y2="480"/><!--class SQLDialect--><rect fill="#FEFECE" filter="url(#fnjr4s571teu7)" height="48" id="SQLDialect" style="stroke: #A80036; stroke-width: 1.5;" width="91" x="482.5" y="440"/><ellipse cx="497.5" cy="456" fill="#ADD1B2" rx="11" ry="11" style="stroke: #A80036; stroke-width: 1.0;"/><path d="M497.375,462.2031 Q494.9844,462.2031 493.8438,460.5938 Q492.7031,458.9844 492.7031,456.0625 Q492.7031,453.1406 493.8438,451.5391 Q494.9844,449.9375 497.375,449.9375 Q498.2969,449.9375 499,450.1797 Q499.7031,450.4219 500.2109,450.8672 Q500.7188,451.3125 501.0547,451.9375 Q501.3906,452.5625 501.5781,453.3438 L499.1875,453.9219 Q499.0938,453.5 498.9531,453.1406 Q498.8125,452.7813 498.6016,452.5313 Q498.3906,452.2813 498.0781,452.1328 Q497.7656,451.9844 497.3281,451.9844 Q496.2813,451.9844 495.8516,452.7969 Q495.4219,453.6094 495.4219,455.0313 L495.4219,457.1094 Q495.4219,458.5313 495.8516,459.3359 Q496.2813,460.1406 497.3281,460.1406 Q498.2031,460.1406 498.6016,459.6016 Q499,459.0625 499.1875,458.2031 L501.5781,458.7813 Q501.3906,459.5625 501.0547,460.1953 Q500.7188,460.8281 500.2109,461.2813 Q499.7031,461.7344 499,461.9688 Q498.2969,462.2031 497.375,462.2031 Z "/><text fill="#000000" font-family="sans-serif" font-size="12" lengthAdjust="spacingAndGlyphs" textLength="59" x="511.5" y="460.4975">SQLDialect</text><line style="stroke: #A80036; stroke-width: 1.5;" x1="483.5" x2="572.5" y1="472" y2="472"/><line style="stroke: #A80036; stroke-width: 1.5;" x1="483.5" x2="572.5" y1="480" y2="480"/><!--class DataSource--><rect fill="#FEFECE" filter="url(#fnjr4s571teu7)" height="48" id="DataSource" style="stroke: #A80036; stroke-width: 1.5;" width="94" x="353" y="440"/><ellipse cx="368" cy="456" fill="#ADD1B2" rx="11" ry="11" style="stroke: #A80036; stroke-width: 1.0;"/><path d="M367.875,462.2031 Q365.4844,462.2031 364.3438,460.5938 Q363.2031,458.9844 363.2031,456.0625 Q363.2031,453.1406 364.3438,451.5391 Q365.4844,449.9375 367.875,449.9375 Q368.7969,449.9375 369.5,450.1797 Q370.2031,450.4219 370.7109,450.8672 Q371.2188,451.3125 371.5547,451.9375 Q371.8906,452.5625 372.0781,453.3438 L369.6875,453.9219 Q369.5938,453.5 369.4531,453.1406 Q369.3125,452.7813 369.1016,452.5313 Q368.8906,452.2813 368.5781,452.1328 Q368.2656,451.9844 367.8281,451.9844 Q366.7813,451.9844 366.3516,452.7969 Q365.9219,453.6094 365.9219,455.0313 L365.9219,457.1094 Q365.9219,458.5313 366.3516,459.3359 Q366.7813,460.1406 367.8281,460.1406 Q368.7031,460.1406 369.1016,459.6016 Q369.5,459.0625 369.6875,458.2031 L372.0781,458.7813 Q371.8906,459.5625 371.5547,460.1953 Q371.2188,460.8281 370.7109,461.2813 Q370.2031,461.7344 369.5,461.9688 Q368.7969,462.2031 367.875,462.2031 Z "/><text fill="#000000" font-family="sans-serif" font-size="12" lengthAdjust="spacingAndGlyphs" textLength="62" x="382" y="460.4975">DataSource</text><line style="stroke: #A80036; stroke-width: 1.5;" x1="354" x2="446" y1="472" y2="472"/><line style="stroke: #A80036; stroke-width: 1.5;" x1="354" x2="446" y1="480" y2="480"/><!--class JDBC_url--><rect fill="#FEFECE" filter="url(#fnjr4s571teu7)" height="48" id="JDBC_url" style="stroke: #A80036; stroke-width: 1.5;" width="82" x="222" y="548"/><ellipse cx="237" cy="564" fill="#ADD1B2" rx="11" ry="11" style="stroke: #A80036; stroke-width: 1.0;"/><path d="M236.875,570.2031 Q234.4844,570.2031 233.3438,568.5938 Q232.2031,566.9844 232.2031,564.0625 Q232.2031,561.1406 233.3438,559.5391 Q234.4844,557.9375 236.875,557.9375 Q237.7969,557.9375 238.5,558.1797 Q239.2031,558.4219 239.7109,558.8672 Q240.2188,559.3125 240.5547,559.9375 Q240.8906,560.5625 241.0781,561.3438 L238.6875,561.9219 Q238.5938,561.5 238.4531,561.1406 Q238.3125,560.7813 238.1016,560.5313 Q237.8906,560.2813 237.5781,560.1328 Q237.2656,559.9844 236.8281,559.9844 Q235.7813,559.9844 235.3516,560.7969 Q234.9219,561.6094 234.9219,563.0313 L234.9219,565.1094 Q234.9219,566.5313 235.3516,567.3359 Q235.7813,568.1406 236.8281,568.1406 Q237.7031,568.1406 238.1016,567.6016 Q238.5,567.0625 238.6875,566.2031 L241.0781,566.7813 Q240.8906,567.5625 240.5547,568.1953 Q240.2188,568.8281 239.7109,569.2813 Q239.2031,569.7344 238.5,569.9688 Q237.7969,570.2031 236.875,570.2031 Z "/><text fill="#000000" font-family="sans-serif" font-size="12" lengthAdjust="spacingAndGlyphs" textLength="50" x="251" y="568.4975">JDBC_url</text><line style="stroke: #A80036; stroke-width: 1.5;" x1="223" x2="303" y1="580" y2="580"/><line style="stroke: #A80036; stroke-width: 1.5;" x1="223" x2="303" y1="588" y2="588"/><!--class JDBC_username--><rect fill="#FEFECE" filter="url(#fnjr4s571teu7)" height="48" id="JDBC_username" style="stroke: #A80036; stroke-width: 1.5;" width="122" x="339" y="548"/><ellipse cx="354" cy="564" fill="#ADD1B2" rx="11" ry="11" style="stroke: #A80036; stroke-width: 1.0;"/><path d="M353.875,570.2031 Q351.4844,570.2031 350.3438,568.5938 Q349.2031,566.9844 349.2031,564.0625 Q349.2031,561.1406 350.3438,559.5391 Q351.4844,557.9375 353.875,557.9375 Q354.7969,557.9375 355.5,558.1797 Q356.2031,558.4219 356.7109,558.8672 Q357.2188,559.3125 357.5547,559.9375 Q357.8906,560.5625 358.0781,561.3438 L355.6875,561.9219 Q355.5938,561.5 355.4531,561.1406 Q355.3125,560.7813 355.1016,560.5313 Q354.8906,560.2813 354.5781,560.1328 Q354.2656,559.9844 353.8281,559.9844 Q352.7813,559.9844 352.3516,560.7969 Q351.9219,561.6094 351.9219,563.0313 L351.9219,565.1094 Q351.9219,566.5313 352.3516,567.3359 Q352.7813,568.1406 353.8281,568.1406 Q354.7031,568.1406 355.1016,567.6016 Q355.5,567.0625 355.6875,566.2031 L358.0781,566.7813 Q357.8906,567.5625 357.5547,568.1953 Q357.2188,568.8281 356.7109,569.2813 Q356.2031,569.7344 355.5,569.9688 Q354.7969,570.2031 353.875,570.2031 Z "/><text fill="#000000" font-family="sans-serif" font-size="12" lengthAdjust="spacingAndGlyphs" textLength="90" x="368" y="568.4975">JDBC_username</text><line style="stroke: #A80036; stroke-width: 1.5;" x1="340" x2="460" y1="580" y2="580"/><line style="stroke: #A80036; stroke-width: 1.5;" x1="340" x2="460" y1="588" y2="588"/><!--class JDBC_password--><rect fill="#FEFECE" filter="url(#fnjr4s571teu7)" height="48" id="JDBC_password" style="stroke: #A80036; stroke-width: 1.5;" width="120" x="496" y="548"/><ellipse cx="511" cy="564" fill="#ADD1B2" rx="11" ry="11" style="stroke: #A80036; stroke-width: 1.0;"/><path d="M510.875,570.2031 Q508.4844,570.2031 507.3438,568.5938 Q506.2031,566.9844 506.2031,564.0625 Q506.2031,561.1406 507.3438,559.5391 Q508.4844,557.9375 510.875,557.9375 Q511.7969,557.9375 512.5,558.1797 Q513.2031,558.4219 513.7109,558.8672 Q514.2188,559.3125 514.5547,559.9375 Q514.8906,560.5625 515.0781,561.3438 L512.6875,561.9219 Q512.5938,561.5 512.4531,561.1406 Q512.3125,560.7813 512.1016,560.5313 Q511.8906,560.2813 511.5781,560.1328 Q511.2656,559.9844 510.8281,559.9844 Q509.7813,559.9844 509.3516,560.7969 Q508.9219,561.6094 508.9219,563.0313 L508.9219,565.1094 Q508.9219,566.5313 509.3516,567.3359 Q509.7813,568.1406 510.8281,568.1406 Q511.7031,568.1406 512.1016,567.6016 Q512.5,567.0625 512.6875,566.2031 L515.0781,566.7813 Q514.8906,567.5625 514.5547,568.1953 Q514.2188,568.8281 513.7109,569.2813 Q513.2031,569.7344 512.5,569.9688 Q511.7969,570.2031 510.875,570.2031 Z "/><text fill="#000000" font-family="sans-serif" font-size="12" lengthAdjust="spacingAndGlyphs" textLength="88" x="525" y="568.4975">JDBC_password</text><line style="stroke: #A80036; stroke-width: 1.5;" x1="497" x2="615" y1="580" y2="580"/><line style="stroke: #A80036; stroke-width: 1.5;" x1="497" x2="615" y1="588" y2="588"/><!--class CommandProcessor--><rect fill="#FEFECE" filter="url(#fnjr4s571teu7)" height="48" id="CommandProcessor" style="stroke: #A80036; stroke-width: 1.5;" width="140" x="231" y="116"/><ellipse cx="246" cy="132" fill="#ADD1B2" rx="11" ry="11" style="stroke: #A80036; stroke-width: 1.0;"/><path d="M245.875,138.2031 Q243.4844,138.2031 242.3438,136.5938 Q241.2031,134.9844 241.2031,132.0625 Q241.2031,129.1406 242.3438,127.5391 Q243.4844,125.9375 245.875,125.9375 Q246.7969,125.9375 247.5,126.1797 Q248.2031,126.4219 248.7109,126.8672 Q249.2188,127.3125 249.5547,127.9375 Q249.8906,128.5625 250.0781,129.3438 L247.6875,129.9219 Q247.5938,129.5 247.4531,129.1406 Q247.3125,128.7813 247.1016,128.5313 Q246.8906,128.2813 246.5781,128.1328 Q246.2656,127.9844 245.8281,127.9844 Q244.7813,127.9844 244.3516,128.7969 Q243.9219,129.6094 243.9219,131.0313 L243.9219,133.1094 Q243.9219,134.5313 244.3516,135.3359 Q244.7813,136.1406 245.8281,136.1406 Q246.7031,136.1406 247.1016,135.6016 Q247.5,135.0625 247.6875,134.2031 L250.0781,134.7813 Q249.8906,135.5625 249.5547,136.1953 Q249.2188,136.8281 248.7109,137.2813 Q248.2031,137.7344 247.5,137.9688 Q246.7969,138.2031 245.875,138.2031 Z "/><text fill="#000000" font-family="sans-serif" font-size="12" lengthAdjust="spacingAndGlyphs" textLength="108" x="260" y="136.4975">CommandProcessor</text><line style="stroke: #A80036; stroke-width: 1.5;" x1="232" x2="370" y1="148" y2="148"/><line style="stroke: #A80036; stroke-width: 1.5;" x1="232" x2="370" y1="156" y2="156"/><!--class MainApp--><rect fill="#FEFECE" filter="url(#fnjr4s571teu7)" height="48" id="MainApp" style="stroke: #A80036; stroke-width: 1.5;" width="80" x="261" y="8"/><ellipse cx="276" cy="24" fill="#ADD1B2" rx="11" ry="11" style="stroke: #A80036; stroke-width: 1.0;"/><path d="M275.875,30.2031 Q273.4844,30.2031 272.3438,28.5938 Q271.2031,26.9844 271.2031,24.0625 Q271.2031,21.1406 272.3438,19.5391 Q273.4844,17.9375 275.875,17.9375 Q276.7969,17.9375 277.5,18.1797 Q278.2031,18.4219 278.7109,18.8672 Q279.2188,19.3125 279.5547,19.9375 Q279.8906,20.5625 280.0781,21.3438 L277.6875,21.9219 Q277.5938,21.5 277.4531,21.1406 Q277.3125,20.7813 277.1016,20.5313 Q276.8906,20.2813 276.5781,20.1328 Q276.2656,19.9844 275.8281,19.9844 Q274.7813,19.9844 274.3516,20.7969 Q273.9219,21.6094 273.9219,23.0313 L273.9219,25.1094 Q273.9219,26.5313 274.3516,27.3359 Q274.7813,28.1406 275.8281,28.1406 Q276.7031,28.1406 277.1016,27.6016 Q277.5,27.0625 277.6875,26.2031 L280.0781,26.7813 Q279.8906,27.5625 279.5547,28.1953 Q279.2188,28.8281 278.7109,29.2813 Q278.2031,29.7344 277.5,29.9688 Q276.7969,30.2031 275.875,30.2031 Z "/><text fill="#000000" font-family="sans-serif" font-size="12" lengthAdjust="spacingAndGlyphs" textLength="48" x="290" y="28.4975">MainApp</text><line style="stroke: #A80036; stroke-width: 1.5;" x1="262" x2="340" y1="40" y2="40"/><line style="stroke: #A80036; stroke-width: 1.5;" x1="262" x2="340" y1="48" y2="48"/><!--link Command to EchoCommand--><path d="M274.44,288.66 C264.73,303.15 254.07,319.07 245.62,331.68 " fill="none" id="Command-EchoCommand" style="stroke: #A80036; stroke-width: 1.0; stroke-dasharray: 7.0,7.0;"/><polygon fill="none" points="268.65,284.72,285.59,272,280.28,292.51,268.65,284.72" style="stroke: #A80036; stroke-width: 1.0;"/><!--link Command to ExitCommand--><path d="M362.34,279.67 C395.72,296.36 436.33,316.66 466.97,331.98 " fill="none" id="Command-ExitCommand" style="stroke: #A80036; stroke-width: 1.0; stroke-dasharray: 7.0,7.0;"/><polygon fill="none" points="358.91,285.78,344.16,270.58,365.18,273.26,358.91,285.78" style="stroke: #A80036; stroke-width: 1.0;"/><!--link Command to SetCommand--><path d="M239.78,279.18 C205.83,295.92 164.26,316.41 132.91,331.87 " fill="none" id="Command-SetCommand" style="stroke: #A80036; stroke-width: 1.0; stroke-dasharray: 7.0,7.0;"/><polygon fill="none" points="236.72,272.89,257.75,270.32,242.91,285.45,236.72,272.89" style="stroke: #A80036; stroke-width: 1.0;"/><!--link Command to SqlCommand--><path d="M327.94,288.66 C337.78,303.15 348.59,319.07 357.16,331.68 " fill="none" id="Command-SqlCommand" style="stroke: #A80036; stroke-width: 1.0; stroke-dasharray: 7.0,7.0;"/><polygon fill="none" points="322.07,292.48,316.62,272,333.65,284.61,322.07,292.48" style="stroke: #A80036; stroke-width: 1.0;"/><!--link SetCommand to GlobalContext--><path d="M77.2,392.87 C73.41,408.33 69.09,425.96 65.72,439.68 " fill="none" id="SetCommand-GlobalContext" style="stroke: #A80036; stroke-width: 1.0;"/><polygon fill="#FFFFFF" points="80.36,380,75.0449,384.8734,77.4992,391.654,82.8143,386.7806,80.36,380" style="stroke: #A80036; stroke-width: 1.0;"/><!--link SetCommand to Stderr--><path d="M115.96,390.08 C130.53,406.17 147.7,425.13 160.88,439.68 " fill="none" id="SetCommand-Stderr" style="stroke: #A80036; stroke-width: 1.0;"/><polygon fill="#FFFFFF" points="106.83,380,107.891,387.1326,114.883,388.8966,113.822,381.7639,106.83,380" style="stroke: #A80036; stroke-width: 1.0;"/><!--link EchoCommand to GlobalContext--><path d="M182,386.93 C155.08,403.71 122.02,424.33 97.11,439.86 " fill="none" id="EchoCommand-GlobalContext" style="stroke: #A80036; stroke-width: 1.0;"/><polygon fill="#FFFFFF" points="193.11,380,185.9021,379.7846,182.9311,386.3552,190.1389,386.5706,193.11,380" style="stroke: #A80036; stroke-width: 1.0;"/><!--link EchoCommand to Stdout--><path d="M247.8,391.94 C255.78,407.61 264.99,425.68 272.12,439.68 " fill="none" id="EchoCommand-Stdout" style="stroke: #A80036; stroke-width: 1.0;"/><polygon fill="#FFFFFF" points="241.72,380,240.8783,387.1618,247.1655,390.6933,248.0072,383.5315,241.72,380" style="stroke: #A80036; stroke-width: 1.0;"/><!--link SqlCommand to Stdout--><path d="M345.22,390.08 C331.71,406.17 315.8,425.13 303.58,439.68 " fill="none" id="SqlCommand-Stdout" style="stroke: #A80036; stroke-width: 1.0;"/><polygon fill="#FFFFFF" points="353.69,380,346.7688,382.0243,345.9754,389.1916,352.8966,387.1673,353.69,380" style="stroke: #A80036; stroke-width: 1.0;"/><!--link SqlCommand to Stderr--><path d="M320,386.41 C286.17,405.19 243.4,428.93 214.51,444.96 " fill="none" id="SqlCommand-Stderr" style="stroke: #A80036; stroke-width: 1.0;"/><polygon fill="#FFFFFF" points="331.56,380,324.3726,379.4157,321.0689,385.8255,328.2563,386.4098,331.56,380" style="stroke: #A80036; stroke-width: 1.0;"/><!--link SqlCommand to SQLDialect--><path d="M417.43,387.38 C441.84,404.08 471.65,424.47 494.17,439.86 " fill="none" id="SqlCommand-SQLDialect" style="stroke: #A80036; stroke-width: 1.0;"/><polygon fill="#FFFFFF" points="406.63,380,409.3222,386.6897,416.5327,386.7776,413.8406,380.0879,406.63,380" style="stroke: #A80036; stroke-width: 1.0;"/><!--link SqlCommand to DataSource--><path d="M382.14,392.87 C386.07,408.33 390.57,425.96 394.06,439.68 " fill="none" id="SqlCommand-DataSource" style="stroke: #A80036; stroke-width: 1.0;"/><polygon fill="#FFFFFF" points="378.86,380,376.46,386.8,381.8138,391.6308,384.2138,384.8308,378.86,380" style="stroke: #A80036; stroke-width: 1.0;"/><!--link DataSource to JDBC_url--><path d="M370.27,488 C348.79,504.62 319.72,527.12 297.26,544.5 " fill="none" id="DataSource-JDBC_url" style="stroke: #A80036; stroke-width: 1.0;"/><polygon fill="#A80036" points="293.14,547.68,302.7076,545.3431,297.0967,544.6232,297.8167,539.0123,293.14,547.68" style="stroke: #A80036; stroke-width: 1.0;"/><!--link DataSource to JDBC_username--><path d="M400,488 C400,504 400,525.45 400,542.53 " fill="none" id="DataSource-JDBC_username" style="stroke: #A80036; stroke-width: 1.0;"/><polygon fill="#A80036" points="400,547.68,404,538.68,400,542.68,396,538.68,400,547.68" style="stroke: #A80036; stroke-width: 1.0;"/><!--link DataSource to JDBC_password--><path d="M433.85,488 C458.5,504.75 491.92,527.46 517.58,544.89 " fill="none" id="DataSource-JDBC_password" style="stroke: #A80036; stroke-width: 1.0;"/><polygon fill="#A80036" points="521.95,547.86,516.753,539.494,517.814,545.0504,512.2576,546.1115,521.95,547.86" style="stroke: #A80036; stroke-width: 1.0;"/><!--link CommandProcessor to Command--><path d="M301,177.34 C301,192.68 301,210.1 301,223.68 " fill="none" id="CommandProcessor-Command" style="stroke: #A80036; stroke-width: 1.0;"/><polygon fill="#FFFFFF" points="301,164,297,170,301,176,305,170,301,164" style="stroke: #A80036; stroke-width: 1.0;"/><text fill="#000000" font-family="sans-serif" font-size="13" lengthAdjust="spacingAndGlyphs" textLength="8" x="292.025" y="185.2172">1</text><text fill="#000000" font-family="sans-serif" font-size="13" lengthAdjust="spacingAndGlyphs" textLength="6" x="294.1938" y="212.4222">*</text><!--link MainApp to CommandProcessor--><path d="M301,69.34 C301,84.68 301,102.1 301,115.68 " fill="none" id="MainApp-CommandProcessor" style="stroke: #A80036; stroke-width: 1.0;"/><polygon fill="#A80036" points="301,56,297,62,301,68,305,62,301,56" style="stroke: #A80036; stroke-width: 1.0;"/><!--
@startuml
Command <|.. EchoCommand
Command <|.. ExitCommand
Command <|.. SetCommand
Command <|.. SqlCommand

SetCommand o- - GlobalContext
SetCommand o- - Stderr

EchoCommand o- - GlobalContext
EchoCommand o- - Stdout

SqlCommand o- - Stdout
SqlCommand o- - Stderr
SqlCommand o- - SQLDialect
SqlCommand o- - DataSource

DataSource - -> JDBC_url
DataSource - -> JDBC_username
DataSource - -> JDBC_password

CommandProcessor "1" o- - "*" Command

MainApp *- - CommandProcessor
@enduml

PlantUML version 1.2018.00(Fri Jan 05 03:42:56 CST 2018)
(GPL source distribution)
Java Runtime: Java(TM) SE Runtime Environment
JVM: Java HotSpot(TM) 64-Bit GraalVM EE 19.2.0
Java Version: 1.8.0_221-b11
Operating System: Linux
OS Version: 5.3.7-arch1-1-ARCH
Default Encoding: UTF-8
Language: en
Country: US
--></g></svg>